<svg xmlns="http://www.w3.org/2000/svg" width="60" height="60" viewBox="0 0 60 60">
  <g id="Group_1" data-name="Group 1" transform="translate(-35.5 -31.984)">
    <g id="Path_112" data-name="Path 112" transform="translate(35.5 31.984)" fill="none">
      <path d="M30,0A30,30,0,1,1,0,30,30,30,0,0,1,30,0Z" stroke="none"/>
      <path d="M 30 2.999996185302734 C 26.35369873046875 2.999996185302734 22.81806564331055 3.713451385498047 19.49129867553711 5.120563507080078 C 16.27652359008789 6.480297088623047 13.38872146606445 8.427505493164062 10.90811157226562 10.90810775756836 C 8.427509307861328 13.38871765136719 6.480300903320312 16.27651977539062 5.120567321777344 19.49129486083984 C 3.713455200195312 22.81806182861328 3 26.35369491577148 3 29.99999618530273 C 3 33.64629364013672 3.713455200195312 37.18193054199219 5.120567321777344 40.50869750976562 C 6.480300903320312 43.72347259521484 8.427509307861328 46.61127471923828 10.90811157226562 49.09188461303711 C 13.38872146606445 51.57248687744141 16.27652359008789 53.51969528198242 19.49129867553711 54.87942886352539 C 22.81806564331055 56.28654098510742 26.35369873046875 56.99999618530273 30 56.99999618530273 C 33.64630126953125 56.99999618530273 37.18193054199219 56.28654098510742 40.50869750976562 54.87942886352539 C 43.72348022460938 53.51969528198242 46.61127853393555 51.57248687744141 49.09188842773438 49.09188461303711 C 51.57248687744141 46.61127471923828 53.51969909667969 43.72347259521484 54.87943267822266 40.50869750976562 C 56.28654479980469 37.18193054199219 57 33.64629364013672 57 29.99999618530273 C 57 26.35369491577148 56.28654479980469 22.81806182861328 54.87943267822266 19.49129486083984 C 53.51969909667969 16.27651977539062 51.57248687744141 13.38871765136719 49.09188842773438 10.90810775756836 C 46.61127853393555 8.427505493164062 43.72348022460938 6.480297088623047 40.50869750976562 5.120563507080078 C 37.18193054199219 3.713451385498047 33.64630126953125 2.999996185302734 30 2.999996185302734 M 30 -3.814697265625e-06 C 46.56854248046875 -3.814697265625e-06 60 13.43144989013672 60 29.99999618530273 C 60 46.56854248046875 46.56854248046875 59.99999618530273 30 59.99999618530273 C 13.43145370483398 59.99999618530273 0 46.56854248046875 0 29.99999618530273 C 0 13.43144989013672 13.43145370483398 -3.814697265625e-06 30 -3.814697265625e-06 Z" stroke="none" fill="#9b988b"/>
    </g>
    <line id="Line_7" data-name="Line 7" x2="40" y2="41" transform="translate(45.5 42.5)" fill="none" stroke="#9b988b" stroke-width="3"/>
    <line id="Line_8" data-name="Line 8" x1="41" y2="41" transform="translate(45.5 42.5)" fill="none" stroke="#9b988b" stroke-width="3"/>
    <line id="Line_9" data-name="Line 9" x2="0.317" y2="28.184" transform="translate(65.5 63.5)" fill="none" stroke="#9b988b" stroke-width="3"/>
  </g>
</svg>
